HIERARCHY
ROOT Hips
{
	OFFSET -0.001795 -0.223333 0.028219
	CHANNELS 6 Xposition Yposition Zposition Zrotation Yrotation Xrotation 
	JOINT LeftUpLeg
	{
		OFFSET 0.069520 -0.091406 -0.006815
		CHANNELS 3 Zrotation Yrotation Xrotation
		JOINT LeftLeg
		{
			OFFSET 0.034277 -0.375199 -0.004496
			CHANNELS 3 Zrotation Yrotation Xrotation
			JOINT LeftFoot
			{
				OFFSET -0.013596 -0.397961 -0.043693
				CHANNELS 3 Zrotation Yrotation Xrotation
				JOINT LeftToe
				{
					OFFSET 0.026358 -0.055791 0.119288
					CHANNELS 3 Zrotation Yrotation Xrotation
					End Site
					{
						OFFSET 0.000000 0.000000 0.000000
					}
				}
			}
		}
	}
	JOINT RightUpLeg
	{
		OFFSET -0.067670 -0.090522 -0.004320
		CHANNELS 3 Zrotation Yrotation Xrotation
		JOINT RightLeg
		{
			OFFSET -0.038290 -0.382569 -0.008850
			CHANNELS 3 Zrotation Yrotation Xrotation
			JOINT RightFoot
			{
				OFFSET 0.015774 -0.398415 -0.042312
				CHANNELS 3 Zrotation Yrotation Xrotation
				JOINT RightToe
				{
					OFFSET -0.025372 -0.048144 0.123348
					CHANNELS 3 Zrotation Yrotation Xrotation
					End Site
					{
						OFFSET 0.000000 0.000000 0.000000
					}
				}
			}
		}
	}
	JOINT Spine
	{
		OFFSET -0.002533 0.108963 -0.026696
		CHANNELS 3 Zrotation Yrotation Xrotation
		JOINT Spine1
		{
			OFFSET 0.005487 0.135180 0.001092
			CHANNELS 3 Zrotation Yrotation Xrotation
			JOINT Spine2
			{
				OFFSET 0.001457 0.052922 0.025425
				CHANNELS 3 Zrotation Yrotation Xrotation
				JOINT Neck
				{
					OFFSET -0.002778 0.213870 -0.042857
					CHANNELS 3 Zrotation Yrotation Xrotation
					JOINT Head
					{
						OFFSET 0.005152 0.064970 0.051349
						CHANNELS 3 Zrotation Yrotation Xrotation
						End Site
						{
							OFFSET 0.000000 0.000000 0.000000
						}
					}
				}
				JOINT LeftShoulder
				{
					OFFSET 0.078845 0.121749 -0.034090
					CHANNELS 3 Zrotation Yrotation Xrotation
					JOINT LeftArm
					{
						OFFSET 0.090977 0.030469 -0.008868
						CHANNELS 3 Zrotation Yrotation Xrotation
						JOINT LeftForeArm
						{
							OFFSET 0.259612 -0.012772 -0.027456
							CHANNELS 3 Zrotation Yrotation Xrotation
							JOINT LeftHand
							{
								OFFSET 0.249234 0.008986 -0.001171
								CHANNELS 3 Zrotation Yrotation Xrotation
								End Site
								{
									OFFSET 0.000000 0.000000 0.000000
								}
							}
						}
					}
				}
				JOINT RightShoulder
				{
					OFFSET -0.081759 0.118833 -0.038615
					CHANNELS 3 Zrotation Yrotation Xrotation
					JOINT RightArm
					{
						OFFSET -0.096012 0.032551 -0.009143
						CHANNELS 3 Zrotation Yrotation Xrotation
						JOINT RightForeArm
						{
							OFFSET -0.253742 -0.013329 -0.021401
							CHANNELS 3 Zrotation Yrotation Xrotation
							JOINT RightHand
							{
								OFFSET -0.255298 0.007772 -0.005559
								CHANNELS 3 Zrotation Yrotation Xrotation
								End Site
								{
									OFFSET 0.000000 0.000000 0.000000
								}
							}
						}
					}
				}
			}
		}
	}
}
MOTION
Frames: 16
Frame Time: 0.050000
-0.453221 0.934641 0.020948 -4.320839 -64.440396 2.373908 -0.526740 2.173300 10.790894 8.204413 -1.244544 0.197759 -12.027379 -19.708184 -6.258540 0.000000 0.000000 0.000000 -9.325342 2.011037 -11.550529 -5.642576 0.365677 -10.536354 98.065867 13.830337 135.138238 0.000000 0.000000 0.000000 -4.673642 0.280080 0.087514 -1.845080 3.150230 6.593827 6.306439 -4.221398 2.999487 -1.557455 -1.297180 -32.210504 0.000000 0.000000 0.000000 -38.252588 -13.267555 25.582546 -20.399373 -20.700362 -3.099713 131.177051 -82.688882 -117.532853 0.000000 0.000000 0.000000 23.068428 33.196841 2.485285 41.126722 2.775087 2.231377 -171.180188 77.316235 173.294704 0.000000 0.000000 0.000000 
-0.489283 0.930580 0.017754 -4.341385 -63.112263 3.160711 0.502635 2.454412 11.896095 9.551643 -1.381077 -0.179282 -12.362409 -20.848919 -6.598269 0.000000 0.000000 0.000000 -10.289761 2.338832 -13.811414 -2.524944 0.143500 -4.321820 16.952879 -6.677486 46.253601 0.000000 0.000000 0.000000 -3.729287 0.226314 -0.572005 -1.089050 3.075055 7.722409 5.064488 -4.211876 0.911372 -1.962611 -1.030505 -29.735295 0.000000 0.000000 0.000000 -38.469049 -14.333659 25.824973 -20.924378 -18.814972 -3.095101 139.191313 -83.569873 -127.255367 0.000000 0.000000 0.000000 24.610639 32.641061 2.415208 39.557449 2.380279 2.261450 -176.517206 77.521436 168.477342 0.000000 0.000000 0.000000 
-0.525976 0.927452 0.013177 -3.209335 -61.673257 2.582885 1.085008 2.791127 13.277819 11.053864 -1.485534 -0.683960 -12.661991 -22.003315 -5.907030 0.000000 0.000000 0.000000 -11.193664 2.422413 -13.959230 0.056142 0.196600 -0.993418 1.616577 -9.269242 13.802537 0.000000 0.000000 0.000000 -3.330125 0.193694 -0.589930 -0.153858 2.707720 8.323870 4.445107 -4.839883 -0.073674 -1.931782 -0.894394 -30.364449 0.000000 0.000000 0.000000 -39.611028 -14.521812 26.007796 -19.981768 -18.785038 -2.985591 136.494941 -85.330797 -126.724082 0.000000 0.000000 0.000000 24.974960 33.413889 3.340688 38.753446 3.645832 2.515130 -173.353259 78.385484 173.606663 0.000000 0.000000 0.000000 
-0.564509 0.924442 0.006447 -2.458464 -60.362309 2.399332 2.721871 2.856387 13.556824 11.226880 -1.581015 0.606490 -13.276205 -23.196791 -4.933003 0.000000 0.000000 0.000000 -10.519094 2.346841 -14.342800 0.864374 0.299795 2.802753 -2.132173 -11.198323 9.161264 0.000000 0.000000 0.000000 -2.622816 0.156662 -0.709340 -0.916148 3.165179 8.732536 5.677396 -5.695118 -1.314517 -3.155915 -0.372798 -28.744781 0.000000 0.000000 0.000000 -40.697663 -14.595909 26.858233 -20.533440 -17.769552 -3.191138 139.870495 -85.088329 -130.316639 0.000000 0.000000 0.000000 25.922342 34.271264 3.556796 37.002179 4.248861 2.967637 -169.116127 79.091986 179.419023 0.000000 0.000000 0.000000 
-0.605785 0.921592 -0.001635 -2.082483 -59.459941 2.526302 3.952838 2.933771 13.889103 12.450087 -1.754653 1.912448 -13.566506 -23.555215 -3.236209 0.000000 0.000000 0.000000 -10.627003 2.335767 -14.363119 4.063964 0.500068 5.917673 -5.409234 -15.455825 8.667612 0.000000 0.000000 0.000000 -1.646329 0.085291 -0.264664 -0.787883 3.081365 8.797276 5.374649 -5.493174 -2.228917 -2.839433 -0.380367 -27.801226 0.000000 0.000000 0.000000 -40.635523 -14.281403 26.012114 -21.042924 -16.973558 -3.182430 122.413065 -86.213041 -113.031614 0.000000 0.000000 0.000000 27.117476 34.573634 3.942313 36.101728 3.840073 2.924887 -174.403472 79.822322 174.063286 0.000000 0.000000 0.000000 
-0.649408 0.920287 -0.010446 -2.040085 -58.766506 3.372710 5.346143 2.652097 12.567151 11.597797 -1.765780 5.031363 -11.432604 -19.419212 -0.386571 0.000000 0.000000 0.000000 -10.697045 2.339595 -14.415392 8.026825 0.712996 8.264713 -8.599746 -19.077809 7.277212 0.000000 0.000000 0.000000 -0.819782 0.151447 -1.780286 -0.729862 4.077191 11.891711 5.819623 -6.313535 -4.297121 -4.580393 0.585702 -26.015808 0.000000 0.000000 0.000000 -41.804142 -13.831942 25.540639 -20.382375 -15.696499 -3.136335 107.626394 -85.491726 -97.906123 0.000000 0.000000 0.000000 27.501766 35.492305 5.162174 35.788376 4.771841 3.069237 -175.355318 82.376175 174.056381 0.000000 0.000000 0.000000 
-0.693897 0.919927 -0.017803 -3.349747 -58.126801 4.966372 8.290877 2.399219 9.923829 9.555542 -1.187806 11.446255 -9.480759 -15.678389 3.499064 0.000000 0.000000 0.000000 -9.095710 2.074452 -13.702615 10.568007 0.888198 10.241059 -10.452715 -20.189595 4.079505 0.000000 0.000000 0.000000 0.826459 0.177322 -2.322885 -0.137053 3.740861 11.977609 5.497446 -5.355204 -4.149576 -4.888413 0.835577 -27.074425 0.000000 0.000000 0.000000 -42.182095 -12.925068 24.224622 -22.794574 -13.966737 -3.462389 122.612128 -86.098273 -113.294924 0.000000 0.000000 0.000000 26.432016 35.901318 6.258278 35.847236 5.175743 2.836476 -171.895639 83.643921 178.460003 0.000000 0.000000 0.000000 
-0.737237 0.921181 -0.022813 -3.748782 -57.436249 4.594754 9.593662 2.181976 6.770341 7.360283 0.762066 20.660568 -4.791922 -8.063867 7.166385 0.000000 0.000000 0.000000 -7.738822 1.624272 -10.808718 12.347244 0.959223 10.743411 -11.672942 -20.627710 1.558486 0.000000 0.000000 0.000000 1.830595 0.155223 -2.083853 -1.290832 4.571969 12.627248 7.170637 -4.243219 -3.524920 -6.753259 1.758664 -28.184394 0.000000 0.000000 0.000000 -43.815011 -14.271509 25.484404 -22.772317 -13.441001 -3.522812 92.191874 -83.239814 -80.360170 0.000000 0.000000 0.000000 24.649327 34.872487 6.277111 35.076120 5.585877 2.582271 -179.947467 83.717161 169.727855 0.000000 0.000000 0.000000 
-0.777432 0.923258 -0.024798 -4.338335 -56.142043 3.841490 11.308442 2.199479 2.456765 5.931484 3.897870 30.827442 -3.371706 -5.550748 7.005698 0.000000 0.000000 0.000000 -6.127108 1.078552 -5.676695 13.225766 0.908026 8.320473 -12.382677 -20.672888 0.041294 0.000000 0.000000 0.000000 2.973889 0.034464 -0.634171 -1.595477 4.355485 11.839084 6.336923 -3.507555 -2.336084 -5.586739 1.337469 -27.916001 0.000000 0.000000 0.000000 -44.570392 -13.200028 24.310890 -23.060697 -12.689067 -3.717212 97.734546 -84.212760 -86.686745 0.000000 0.000000 0.000000 25.670161 35.126086 6.843643 34.729604 5.718807 2.499097 167.383382 84.630653 156.782123 0.000000 0.000000 0.000000 
-0.814318 0.926035 -0.024105 -4.247912 -55.401371 3.625370 10.580797 1.980354 -2.532615 4.458891 6.937174 37.441937 -1.939789 -3.088926 -2.599307 0.000000 0.000000 0.000000 -5.415360 0.893135 -2.198334 14.366045 0.978952 6.189664 -12.664063 -20.726026 -0.553878 0.000000 0.000000 0.000000 3.854442 0.102946 -1.138874 -2.777125 5.290443 12.609085 6.408722 -2.530957 -1.723110 -6.403823 1.907384 -25.874897 0.000000 0.000000 0.000000 -44.391027 -13.823853 23.855688 -23.500620 -12.388238 -3.649261 85.532360 -83.466292 -73.798587 0.000000 0.000000 0.000000 25.612027 34.942664 7.421908 34.485891 6.248887 2.412299 179.192067 86.797844 170.841526 0.000000 0.000000 0.000000 
-0.848081 0.929096 -0.020753 -4.156893 -54.500980 3.312951 9.684051 1.903481 -6.980263 1.735858 6.696542 33.731518 -3.794528 -7.074885 -10.939597 0.000000 0.000000 0.000000 -4.706672 0.824594 1.813467 15.059684 1.132918 3.105976 -12.653689 -20.724412 -0.339658 0.000000 0.000000 0.000000 3.820163 0.035051 -0.457818 -3.741396 5.566771 11.948110 6.392486 -0.165891 -1.299197 -5.450918 1.705853 -25.155159 0.000000 0.000000 0.000000 -44.202334 -14.429548 22.866115 -24.553613 -10.524955 -3.751161 98.843140 -85.163850 -88.446827 0.000000 0.000000 0.000000 27.044700 34.274782 8.100946 33.409439 6.893444 2.276486 -131.686844 89.053210 -137.212590 0.000000 0.000000 0.000000 
-0.878934 0.931010 -0.013883 -3.773583 -52.954097 3.230598 8.651750 1.901366 -11.461348 -2.764834 3.296583 17.523570 -3.172167 -4.788216 4.769509 0.000000 0.000000 0.000000 -3.597362 0.698300 4.451718 14.530835 1.061904 1.507114 -13.029637 -21.468653 -0.085579 0.000000 0.000000 0.000000 3.598299 0.065466 -0.857976 -4.464681 6.204100 12.784938 6.786358 0.935190 -1.409198 -6.374400 2.420512 -23.434887 0.000000 0.000000 0.000000 -44.073344 -14.926335 22.057213 -24.762376 -10.032239 -3.606825 95.888027 -85.898875 -86.223923 0.000000 0.000000 0.000000 27.135166 34.197607 9.002066 33.062600 7.176743 2.085209 -77.473562 86.681037 -79.351058 0.000000 0.000000 0.000000 
-0.907203 0.931572 -0.003491 -3.982136 -51.776714 3.134127 7.859488 1.973893 -14.774031 -1.172315 0.365851 0.569731 -15.550103 3.338918 63.974439 0.000000 0.000000 0.000000 -2.705016 0.641821 6.908830 14.581056 0.997272 1.025437 -13.319572 -22.108286 0.224348 0.000000 0.000000 0.000000 3.499817 -0.026153 0.133459 -5.253058 6.287518 11.875848 6.843635 3.404161 -0.635052 -6.427843 2.719886 -23.133425 0.000000 0.000000 0.000000 -43.664711 -16.430029 21.618375 -25.188134 -8.637609 -3.548316 91.090835 -86.650894 -82.274925 0.000000 0.000000 0.000000 27.364600 33.318091 9.775370 31.087482 8.702497 1.944778 -65.905216 83.723622 -63.611106 0.000000 0.000000 0.000000 
-0.933684 0.929269 0.011243 -4.465917 -49.971050 3.808896 6.974526 1.887389 -17.117672 2.666959 0.178361 -9.747821 20.114225 37.282098 125.384547 0.000000 0.000000 0.000000 -1.147855 0.406124 8.759184 13.724776 0.806106 0.671923 -14.024948 -23.329657 0.398128 0.000000 0.000000 0.000000 3.228712 -0.052584 0.343947 -6.140733 6.598233 11.475957 7.593256 4.268515 -0.042632 -7.487413 3.411267 -23.092133 0.000000 0.000000 0.000000 -44.048035 -15.954543 20.548698 -24.295496 -8.499455 -3.372339 73.518982 -86.785963 -65.240173 0.000000 0.000000 0.000000 26.857011 33.633707 10.715747 30.272650 10.215925 1.996177 -68.098208 80.021863 -61.659129 0.000000 0.000000 0.000000 
-0.959193 0.924843 0.030438 -5.494050 -48.808907 4.472914 7.129639 2.093546 -18.646042 5.897671 0.559810 -13.556095 72.053743 24.149507 163.402734 0.000000 0.000000 0.000000 -0.090591 0.293178 10.693432 13.837169 0.696998 1.123580 -14.551771 -24.189940 0.484840 0.000000 0.000000 0.000000 3.462230 -0.109233 1.061142 -6.704387 6.382905 10.048119 7.730046 5.590440 0.929491 -7.643429 3.651227 -22.561160 0.000000 0.000000 0.000000 -44.907714 -16.753651 20.852921 -24.636403 -7.418441 -3.495146 52.581921 -84.663930 -43.658442 0.000000 0.000000 0.000000 27.916822 33.730348 11.444460 28.295976 10.916014 1.893788 -66.600469 77.652347 -57.311320 0.000000 0.000000 0.000000 
-0.983979 0.918210 0.054906 -6.884817 -47.274666 5.842000 7.320700 2.133003 -19.327053 6.735251 0.082970 -10.669073 13.006060 26.614611 97.012440 0.000000 0.000000 0.000000 1.003874 0.092263 11.907263 14.199550 0.549235 2.228409 -15.215002 -25.423426 0.774610 0.000000 0.000000 0.000000 3.083995 -0.141678 1.441857 -7.239472 6.310371 9.114267 8.647886 6.335467 0.866563 -8.254373 4.092910 -22.087930 0.000000 0.000000 0.000000 -45.080677 -15.904265 19.624131 -24.605912 -7.057429 -3.466451 36.057475 -82.264058 -27.139451 0.000000 0.000000 0.000000 26.492060 33.666160 11.737853 30.235029 11.243498 1.927164 -69.337522 76.928663 -59.319139 0.000000 0.000000 0.000000 
